<svg width="19" height="18" viewBox="0 0 19 18" fill="none" xmlns="http://www.w3.org/2000/svg">
<path d="M6.3675 12.7346C6.61184 12.9076 6.90407 13.0001 7.20344 12.999V12.995C7.48573 12.9956 7.76197 12.9133 7.99788 12.7583C8.23379 12.6033 8.41898 12.3824 8.53044 12.123L9.14344 10.259C9.28501 9.83674 9.52288 9.4532 9.83823 9.13871C10.1536 8.82422 10.5378 8.58742 10.9604 8.44701L12.7384 7.86901C13.0248 7.76839 13.2722 7.58 13.4454 7.33066C13.6185 7.08132 13.7086 6.78372 13.7029 6.48022C13.6971 6.17671 13.5958 5.88274 13.4133 5.64015C13.2308 5.39756 12.9765 5.2187 12.6864 5.12901L10.9314 4.55901C10.5069 4.41775 10.1212 4.17942 9.80488 3.86296C9.48859 3.5465 9.25047 3.16063 9.10944 2.73601L8.53144 0.959012C8.43064 0.675987 8.24418 0.431388 7.99798 0.259203C7.75177 0.0870172 7.45805 -0.00420338 7.15762 -0.00178415C6.85719 0.000635083 6.56497 0.0965742 6.32157 0.272702C6.07817 0.44883 5.89567 0.6964 5.79944 0.981013L5.21644 2.77301C5.07586 3.18528 4.8435 3.56024 4.53689 3.86962C4.23028 4.179 3.85742 4.41472 3.44644 4.55901L1.66944 5.13001C1.45806 5.20394 1.26678 5.32601 1.1107 5.48659C0.954617 5.64716 0.838021 5.84184 0.770123 6.05523C0.702227 6.26862 0.68489 6.49488 0.719482 6.71612C0.754075 6.93736 0.839648 7.14753 0.969441 7.33001C1.14633 7.57899 1.39723 7.76585 1.68644 7.86401L3.44044 8.43301C3.86607 8.57541 4.25264 8.81509 4.56944 9.13301C4.65451 9.21744 4.73401 9.30729 4.80744 9.40201C5.00662 9.65981 5.16048 9.94961 5.26244 10.259L5.84044 12.034C5.93891 12.3167 6.12317 12.5617 6.3675 12.7346ZM14.0341 17.782C13.8436 17.6462 13.7003 17.4543 13.6241 17.233L13.2961 16.226C13.2323 16.0345 13.1252 15.8603 12.9831 15.717C12.8406 15.5741 12.6667 15.4666 12.4751 15.403L11.4841 15.08C11.2537 15.0027 11.0538 14.8542 10.9131 14.656C10.7759 14.4638 10.7024 14.2333 10.7031 13.997C10.7034 13.7592 10.7779 13.5275 10.9161 13.334C11.0534 13.1395 11.2487 12.9935 11.4741 12.917L12.4801 12.591C12.6671 12.5246 12.8365 12.4163 12.9751 12.2743C13.1138 12.1324 13.2181 11.9605 13.2801 11.772L13.6041 10.78C13.6804 10.5558 13.8244 10.3608 14.0162 10.2219C14.2081 10.0831 14.4384 10.0072 14.6752 10.0049C14.912 10.0026 15.1437 10.074 15.3382 10.209C15.5328 10.3441 15.6806 10.5363 15.7611 10.759L16.0901 11.773C16.1545 11.9631 16.2621 12.1357 16.4044 12.2773C16.5466 12.4188 16.7197 12.5255 16.9101 12.589L17.9021 12.912C18.1308 12.9835 18.3312 13.1252 18.4748 13.317C18.6184 13.5088 18.6981 13.7409 18.7024 13.9804C18.7067 14.22 18.6355 14.4549 18.4988 14.6517C18.3622 14.8485 18.1671 14.9973 17.9411 15.077L16.9271 15.406C16.7371 15.4708 16.5643 15.5782 16.4221 15.72C16.2798 15.8628 16.1727 16.0367 16.1091 16.228L15.7871 17.217C15.7096 17.4473 15.5607 17.647 15.3621 17.787C15.1701 17.9251 14.9396 17.9992 14.7031 17.999C14.4628 17.999 14.2287 17.923 14.0341 17.782Z" fill="url(#paint0_linear_117_431)"/>
<defs>
<linearGradient id="paint0_linear_117_431" x1="9.70235" y1="-0.00183105" x2="9.70235" y2="17.999" gradientUnits="userSpaceOnUse">
<stop stop-color="#A455FF"/>
<stop offset="1" stop-color="#FC55FF"/>
</linearGradient>
</defs>
</svg>
