<svg width="24" height="16" viewBox="0 0 24 16" fill="none" xmlns="http://www.w3.org/2000/svg">
    <path
        d="M7.47805 8.60799C7.67894 8.60831 7.875 8.55275 8.03917 8.44898C8.20334 8.34521 8.32753 8.19834 8.39463 8.02863L8.85385 6.7611C8.93128 6.55017 9.04813 6.35257 9.19942 6.17672C9.46344 5.8702 9.82342 5.64117 10.2334 5.51888L11.0504 5.24804C11.2445 5.18829 11.4485 5.01791 11.5675 4.8681C11.6544 4.75829 11.7117 4.63195 11.735 4.49899C11.7583 4.36602 11.747 4.23002 11.7019 4.10164C11.6952 4.08259 11.6889 4.06444 11.6829 4.0468C11.6482 3.94559 11.6195 3.86153 11.5404 3.72403C11.4922 3.6402 11.4522 3.57778 11.4139 3.53009H16.1154C17.4321 3.53009 18.4994 4.59742 18.4994 5.91404V13.616C18.4994 14.9327 17.4321 16 16.1154 16H9.14695C7.83033 16 6.763 14.9327 6.763 13.616V8.32199C6.8094 8.36793 6.86104 8.40981 6.9173 8.44687C7.08084 8.55178 7.27694 8.60813 7.47805 8.60799Z"
        fill="url(#paint0_linear_13_18363)" />
    <path
        d="M19.5997 12.0342L22.2574 14.6379C22.8377 15.2064 23.816 14.7953 23.816 13.983V5.54912C23.816 4.73125 22.8263 4.32261 22.2493 4.90222L19.5997 7.56366V12.0342Z"
        fill="url(#paint1_linear_13_18363)" />
    <path
        d="M7.77046 7.64791C7.64118 7.73909 7.48679 7.78791 7.32859 7.78763C7.17022 7.78775 7.01579 7.73824 6.88701 7.64606C6.7568 7.55035 6.65799 7.41809 6.60313 7.2661L6.27525 6.25897C6.19131 6.00642 6.0497 5.7769 5.86165 5.58859C5.6736 5.40028 5.44426 5.25836 5.19183 5.17408L4.1715 4.84326C4.06005 4.80339 3.95935 4.73826 3.87729 4.65296C3.79523 4.56766 3.73404 4.46451 3.69852 4.35161C3.66299 4.2387 3.65409 4.1191 3.67252 4.00218C3.69095 3.88526 3.7362 3.7742 3.80474 3.6777C3.9031 3.54132 4.04316 3.44065 4.20377 3.39089L5.21237 3.063C5.46508 2.97921 5.69478 2.83767 5.88323 2.6496C6.07168 2.46153 6.21369 2.23212 6.29799 1.97959L6.62954 0.961454C6.68257 0.813059 6.78051 0.684868 6.90975 0.594692C7.00705 0.525941 7.11906 0.480843 7.23686 0.462985C7.35466 0.445127 7.475 0.455001 7.58831 0.491822C7.70162 0.528643 7.80478 0.591395 7.88958 0.675088C7.97438 0.758781 8.03848 0.861106 8.07678 0.973924L8.412 2.00086C8.49606 2.24646 8.63482 2.46975 8.8178 2.65388C9.00078 2.83801 9.22321 2.97815 9.46828 3.06374L10.4886 3.39235C10.5999 3.43226 10.7005 3.49738 10.7825 3.58262C10.8645 3.66787 10.9256 3.77093 10.9611 3.88373C10.9967 3.99654 11.0056 4.11603 10.9872 4.23287C10.9689 4.3497 10.9238 4.4607 10.8554 4.55719C10.7616 4.68882 10.629 4.78783 10.4761 4.84033L9.46828 5.16675C9.14545 5.2742 8.86198 5.47544 8.65407 5.74477C8.53493 5.89927 8.4429 6.0729 8.38193 6.25823L8.05038 7.27857C7.99754 7.42768 7.89974 7.55673 7.77046 7.64791ZM3.26862 10.6132C3.16887 10.6838 3.04971 10.7217 2.92753 10.7218C2.80646 10.7218 2.68835 10.6844 2.58938 10.6147C2.48702 10.5424 2.41003 10.4397 2.36932 10.3212L2.18741 9.7623C2.1484 9.64608 2.08314 9.54041 1.99669 9.45349C1.91058 9.36654 1.80496 9.30141 1.68861 9.26351L1.12233 9.07866C1.00665 9.03868 0.90637 8.96353 0.835521 8.86373C0.781706 8.78818 0.746571 8.70094 0.732997 8.60917C0.719423 8.51741 0.727795 8.42373 0.75743 8.33583C0.787065 8.24793 0.837115 8.16831 0.903478 8.10349C0.96984 8.03868 1.05062 7.99052 1.1392 7.96297L1.69961 7.78032C1.81561 7.74176 1.92106 7.67675 2.00763 7.59044C2.09419 7.50413 2.15951 7.39888 2.19841 7.28299L2.38326 6.71597C2.42266 6.60019 2.49794 6.49998 2.59818 6.4299C2.67302 6.37639 2.75939 6.34122 2.85032 6.32724C2.94125 6.31326 3.03419 6.32085 3.12165 6.34941C3.2091 6.37797 3.28862 6.42669 3.35378 6.49164C3.41894 6.55658 3.46791 6.63595 3.49675 6.72331L3.67793 7.28226C3.71628 7.39789 3.7805 7.50326 3.86571 7.59034C3.94987 7.67577 4.0525 7.74076 4.16572 7.78032L4.73273 7.96517C4.8494 8.00471 4.95067 8.07996 5.02219 8.18027C5.0937 8.28057 5.13184 8.40084 5.13119 8.52403C5.13054 8.64721 5.09114 8.76707 5.01857 8.86662C4.946 8.96616 4.84395 9.04035 4.72687 9.07866L4.16719 9.25984C4.05066 9.29901 3.94473 9.36452 3.85764 9.45129C3.77092 9.53801 3.70605 9.64411 3.66839 9.76083L3.48281 10.3286C3.44263 10.4434 3.36778 10.5428 3.26862 10.6132Z"
        fill="url(#paint2_linear_13_18363)" />
    <defs>
        <linearGradient id="paint0_linear_13_18363" x1="-2.16942" y1="3.80573e-07" x2="25.1333" y2="14.2523"
            gradientUnits="userSpaceOnUse">
            <stop stop-color="#77B6FF" />
            <stop offset="0.324401" stop-color="#869FFF" />
            <stop offset="1" stop-color="#A66FFF" />
        </linearGradient>
        <linearGradient id="paint1_linear_13_18363" x1="-2.16942" y1="3.80573e-07" x2="25.1333" y2="14.2523"
            gradientUnits="userSpaceOnUse">
            <stop stop-color="#77B6FF" />
            <stop offset="0.324401" stop-color="#3f4560" />
            <stop offset="1" stop-color="#A66FFF" />
        </linearGradient>
        <linearGradient id="paint2_linear_13_18363" x1="0.423996" y1="0.796686" x2="9.78337" y2="9.32992"
            gradientUnits="userSpaceOnUse">
            <stop stop-color="#5786FF" />
            <stop offset="1" stop-color="#8F93FF" />
        </linearGradient>
    </defs>
</svg>
